<svg width="314" height="285" viewBox="0 0 314 285" fill="none" xmlns="http://www.w3.org/2000/svg">
<path d="M128.947 115.279H142.865V124.844H128.947V115.279Z" fill="#3A7BDF"/>
<rect x="147.479" y="124.569" width="4.63596" height="9.27192" transform="rotate(-180 147.479 124.569)" fill="url(#paint0_linear_253_1265)"/>
<path fill-rule="evenodd" clip-rule="evenodd" d="M92 96.7539C92 60.9913 120.991 32 156.754 32C192.516 32 221.508 60.9913 221.508 96.7539C221.508 96.7592 221.508 96.7646 221.508 96.7699H184.137C184.138 96.6399 184.139 96.5096 184.139 96.3792C184.139 81.2235 171.853 68.9373 156.697 68.9373C141.542 68.9373 129.255 81.2235 129.255 96.3792C129.255 104.421 132.715 111.655 138.226 116.674V124.569H156.77V123.821L156.776 123.821V161.505H157.362C157.159 161.507 156.957 161.508 156.754 161.508C120.991 161.508 92 132.516 92 96.7539Z" fill="#3A7BDF"/>
<path fill-rule="evenodd" clip-rule="evenodd" d="M221.45 96.7783H184.057C183.918 106.662 178.555 115.281 170.604 120.001V124.573L198.67 146.07C212.605 134.197 221.445 116.52 221.45 96.7783Z" fill="#3A7BDF"/>
<path fill-rule="evenodd" clip-rule="evenodd" d="M164.429 100.856C162.141 102.075 159.53 102.765 156.757 102.765C153.981 102.765 151.366 102.073 149.076 100.851L151.248 96.7686C152.889 97.6433 154.762 98.1391 156.752 98.1391C158.741 98.1391 160.614 97.6436 162.255 96.7692L164.429 100.856Z" fill="#3A7BDF"/>
<path d="M26.3972 234V200.062H40.8347C48.4285 200.062 53.3972 204.82 53.3972 211.969C53.3972 219.234 48.2878 223.805 40.5535 223.781H35.3035V234H26.3972ZM35.3035 216.844H38.7722C42.1238 216.82 44.0925 214.945 44.0691 211.969C44.0925 209.016 42.1238 207.211 38.7722 207.188H35.3035V216.844Z" fill="#3A7BDF"/>
<path d="M56.0466 234V208.547H64.6247V213.328H64.906C65.82 209.812 67.9763 208.195 70.7185 208.219C71.4919 208.195 72.3122 208.336 73.0153 208.5V216.141C72.1482 215.836 70.6482 215.672 69.6872 215.672C66.9216 215.672 64.8825 217.641 64.906 220.594V234H56.0466Z" fill="#3A7BDF"/>
<path d="M86.446 234.469C78.2428 234.469 73.3444 229.172 73.321 221.344C73.3444 213.516 78.2428 208.219 86.446 208.219C94.6491 208.219 99.5475 213.516 99.5241 221.344C99.5475 229.172 94.6491 234.469 86.446 234.469ZM82.3678 221.297C82.3913 225.328 83.8913 227.883 86.4928 227.906C88.9772 227.883 90.5007 225.328 90.4772 221.297C90.5007 217.219 88.9772 214.664 86.4928 214.688C83.8913 214.664 82.3913 217.219 82.3678 221.297Z" fill="#3A7BDF"/>
<path d="M117.408 208.547V214.969H112.72V234H103.861V214.969H100.58V208.547H103.861V207.656C103.861 201.492 107.4 198.469 112.908 198.469C114.9 198.469 116.33 198.633 117.83 198.938V205.359C116.705 205.266 115.978 205.242 115.627 205.219C113.845 205.242 112.72 205.898 112.72 207.656V208.547H117.408Z" fill="#3A7BDF"/>
<path d="M120.057 234V208.547H128.917V234H120.057ZM120.057 201.703C120.034 199.453 122.026 197.625 124.463 197.625C126.878 197.625 128.87 199.453 128.87 201.703C128.87 203.977 126.878 205.805 124.463 205.781C122.026 205.805 120.034 203.977 120.057 201.703Z" fill="#3A7BDF"/>
<path d="M141.55 200.062V234H132.691V200.062H141.55Z" fill="#3A7BDF"/>
<path d="M157.418 234.469C149.309 234.469 144.364 229.57 144.34 221.344C144.364 213.469 149.379 208.219 157.231 208.219C164.778 208.219 169.77 213.07 169.793 221.25V223.359H153.106V223.688C153.106 226.336 154.77 228.188 157.606 228.188C159.551 228.188 161.075 227.367 161.637 225.891H169.747C168.879 231.141 164.379 234.469 157.418 234.469ZM153.106 218.391H161.59C161.567 216.094 159.786 214.477 157.418 214.5C155.051 214.477 153.176 216.094 153.106 218.391Z" fill="#3A7BDF"/>
<path d="M182.03 234V200.062H196.561C204.295 200.062 208.35 203.414 208.373 208.594C208.35 212.344 205.725 215.203 201.858 216V216.328C206.147 216.469 209.686 219.586 209.686 224.438C209.686 229.969 205.186 234 197.78 234H182.03ZM190.936 226.828H195.483C198.694 226.852 200.264 225.609 200.264 223.312C200.264 220.852 198.483 219.422 195.623 219.422H190.936V226.828ZM190.936 213.844H194.92C197.428 213.844 199.186 212.625 199.186 210.469C199.186 208.312 197.475 207.094 195.061 207.094H190.936V213.844Z" fill="#3A7BDF"/>
<path d="M211.023 226.969C211.023 221.367 215.218 219.164 220.398 218.859C222.32 218.766 225.32 218.672 226.351 218.625V216.562C226.328 215.156 225.179 214.359 223.445 214.359C221.64 214.359 220.421 215.133 220.21 216.75H212.007C212.335 212.133 216.085 208.219 223.585 208.219C230.64 208.219 235.21 211.711 235.21 216.609V234H226.913V230.438H226.726C225.203 233.203 222.718 234.398 219.32 234.422C214.468 234.398 211.023 232.031 211.023 226.969ZM219.367 226.453C219.39 227.977 220.538 228.773 222.179 228.75C224.406 228.773 226.421 227.344 226.398 224.953V223.594C225.507 223.617 223.163 223.711 221.992 223.828C220.398 224.039 219.39 225.07 219.367 226.453Z" fill="#3A7BDF"/>
<path d="M253.563 216.75C253.399 215.156 251.875 214.148 250 214.172C248.336 214.148 246.977 214.828 247 215.953C246.977 216.727 247.563 217.453 249.578 217.828L254.641 218.766C259.821 219.703 262.328 221.906 262.375 225.656C262.328 231.047 257.243 234.469 250.235 234.469C242.547 234.469 238.118 231.047 237.578 225.891H246.391C246.672 227.531 248.149 228.445 250.282 228.469C252.063 228.445 253.328 227.812 253.375 226.688C253.328 225.656 252.414 225.094 250.375 224.719L245.922 223.922C240.766 222.984 238.188 220.43 238.188 216.469C238.188 211.195 242.641 208.219 249.813 208.219C257.055 208.219 261.461 211.43 261.719 216.75H253.563Z" fill="#3A7BDF"/>
<path d="M277.118 234.469C269.009 234.469 264.064 229.57 264.04 221.344C264.064 213.469 269.079 208.219 276.931 208.219C284.478 208.219 289.47 213.07 289.493 221.25V223.359H272.806V223.688C272.806 226.336 274.47 228.188 277.306 228.188C279.251 228.188 280.775 227.367 281.337 225.891H289.447C288.579 231.141 284.079 234.469 277.118 234.469ZM272.806 218.391H281.29C281.267 216.094 279.486 214.477 277.118 214.5C274.751 214.477 272.876 216.094 272.806 218.391Z" fill="#3A7BDF"/>
<defs>
<linearGradient id="paint0_linear_253_1265" x1="152.114" y1="129.205" x2="147.479" y2="129.205" gradientUnits="userSpaceOnUse">
<stop stop-color="#3A7BDF"/>
<stop offset="1" stop-color="#3A7BDF" stop-opacity="0"/>
</linearGradient>
</defs>
</svg>
