<?xml version="1.0" standalone="no"?>
<!DOCTYPE svg PUBLIC "-//W3C//DTD SVG 20010904//EN"
 "http://www.w3.org/TR/2001/REC-SVG-20010904/DTD/svg10.dtd">
<svg version="1.0" xmlns="http://www.w3.org/2000/svg"
 width="1536.000000pt" height="396.000000pt" viewBox="0 0 1536.000000 396.000000"
 preserveAspectRatio="xMidYMid meet">

<g transform="translate(0.000000,396.000000) scale(0.100000,-0.100000)"
fill="#000000" stroke="none">
<path d="M1867 3523 c-14 -13 -7 -73 7 -73 11 0 13 9 9 38 -7 43 -7 44 -16 35z"/>
<path d="M1940 3484 c-6 -14 -10 -50 -10 -80 0 -31 -4 -53 -9 -50 -16 10 1
-36 21 -56 17 -17 18 -15 18 97 0 63 -2 115 -5 115 -3 0 -10 -12 -15 -26z"/>
<path d="M2447 3503 c-15 -15 -2 -167 13 -158 7 4 3 155 -4 163 -2 1 -6 -1 -9
-5z"/>
<path d="M2581 3494 c0 -11 3 -14 6 -6 3 7 2 16 -1 19 -3 4 -6 -2 -5 -13z"/>
<path d="M1770 3443 c1 -5 12 -21 26 -38 13 -16 22 -22 18 -12 -5 13 -2 16 12
11 12 -3 8 4 -11 20 -30 26 -45 32 -45 19z"/>
<path d="M2615 3430 c-3 -5 1 -10 9 -10 8 0 18 5 21 10 3 6 -1 10 -9 10 -8 0
-18 -4 -21 -10z"/>
<path d="M1750 3360 c0 -19 58 -68 96 -80 59 -20 59 8 1 34 -18 8 -47 24 -64
36 -20 14 -33 17 -33 10z"/>
<path d="M2620 3344 c-19 -13 -42 -24 -51 -24 -15 0 -49 -29 -49 -42 0 -7 69
8 77 16 4 3 -2 6 -13 6 -18 1 -18 1 -1 11 10 6 24 8 32 6 15 -6 49 27 44 41
-2 6 -20 -1 -39 -14z"/>
<path d="M2468 3304 c-3 -11 -2 -28 2 -38 6 -18 7 -18 13 -3 3 9 3 27 -2 39
-7 20 -8 20 -13 2z"/>
<path d="M2513 3218 c6 -37 -10 -98 -25 -98 -4 0 -9 10 -9 23 -1 15 -3 17 -6
5 -4 -14 -12 -13 -71 15 -58 27 -80 32 -167 35 -72 3 -115 0 -156 -12 -61 -18
-149 -69 -149 -86 0 -6 13 -2 29 9 73 53 119 64 251 65 122 1 127 0 188 -32
34 -17 78 -46 97 -63 38 -35 97 -148 119 -229 11 -41 15 -48 15 -26 l1 29 27
-24 27 -24 -17 25 c-30 44 -49 82 -43 87 9 9 147 -90 182 -131 47 -54 94 -155
94 -200 0 -97 -78 -211 -185 -268 -119 -63 -321 -94 -554 -85 -272 12 -426 58
-510 153 -38 43 -41 51 -41 103 0 67 31 124 113 209 70 71 42 66 -31 -6 -77
-74 -105 -130 -105 -205 0 -49 4 -63 30 -95 45 -56 104 -97 185 -128 40 -15
74 -29 76 -30 2 -1 -28 -33 -66 -72 -70 -69 -112 -133 -112 -171 0 -11 -8 -22
-18 -25 -10 -4 -29 -24 -43 -46 -13 -22 -30 -40 -36 -40 -7 0 -31 -18 -53 -40
-29 -29 -40 -48 -40 -70 0 -41 23 -83 56 -105 30 -20 116 -24 138 -6 16 14 26
4 26 -26 0 -14 13 -38 29 -54 28 -27 34 -29 110 -29 l81 0 0 -112 c0 -62 5
-133 11 -158 13 -57 53 -138 87 -173 l26 -27 -35 0 c-66 0 -133 24 -207 73
-65 43 -82 78 -82 167 0 52 -3 70 -10 60 -26 -40 -2 -183 44 -266 14 -26 26
-48 26 -50 0 -2 -11 -4 -25 -4 -59 0 -95 -41 -61 -70 18 -14 394 -12 414 3 19
15 298 15 313 -1 18 -17 487 -17 510 1 32 25 -4 67 -58 67 l-33 0 25 39 c37
60 66 157 63 210 l-3 46 -8 -50 c-5 -27 -13 -61 -19 -75 l-11 -25 -9 30 c-5
17 -15 62 -22 100 l-13 70 -7 -55 c-12 -94 -63 -160 -178 -232 -61 -39 -103
-58 -124 -58 -11 0 -7 14 16 59 32 65 70 190 70 233 0 34 35 61 62 47 10 -6
18 -6 18 0 0 11 -25 21 -56 21 -16 0 -24 6 -24 18 0 9 -9 42 -20 71 -21 57
-19 71 8 71 10 0 32 19 50 42 21 29 54 55 99 78 67 35 81 50 100 114 13 47 27
40 48 -25 10 -34 21 -57 22 -52 2 5 -5 34 -16 64 -16 48 -18 70 -11 178 7 108
11 126 31 147 12 13 32 24 44 24 11 0 26 5 32 11 9 9 18 8 35 -3 33 -22 84
-31 106 -19 14 7 29 7 51 -2 40 -15 40 -31 -3 -210 -32 -129 -107 -372 -121
-385 -7 -7 -72 29 -93 51 -9 11 -25 44 -34 75 -9 32 -17 50 -17 41 -1 -9 3
-29 9 -45 27 -80 29 -269 4 -384 l-7 -35 23 20 c52 45 126 193 184 365 44 133
116 429 146 600 23 133 32 170 41 170 22 0 137 -53 269 -124 78 -42 146 -76
151 -76 22 0 4 26 -76 105 -87 87 -126 103 -54 21 22 -25 37 -46 32 -46 -18 0
-146 103 -161 130 -17 30 -32 39 -32 20 0 -6 7 -22 17 -36 l16 -25 -44 19
c-24 11 -84 37 -132 58 l-89 37 -51 -18 c-29 -10 -83 -31 -122 -48 -82 -35
-158 -57 -201 -57 -28 0 -30 -2 -26 -30 3 -20 -2 -37 -13 -50 -17 -19 -17 -21
7 -57 50 -78 62 -116 66 -205 3 -75 1 -94 -18 -134 l-23 -46 -28 36 c-16 19
-38 37 -48 41 -15 4 -20 20 -26 73 -12 119 -32 172 -85 224 l-48 46 72 36
c129 63 211 175 211 286 0 109 -100 249 -244 340 -39 25 -73 51 -76 59 -6 16
20 60 41 68 8 3 25 -4 37 -15 45 -41 127 -68 127 -42 0 6 -8 10 -17 10 -21 0
-123 57 -123 68 0 4 14 16 30 25 l30 18 45 -45 c49 -48 81 -64 97 -48 8 8 3
13 -14 17 -14 4 -42 24 -63 45 -36 37 -36 39 -17 49 31 17 50 13 63 -11 17
-34 51 -68 67 -68 8 0 0 16 -22 42 -49 57 -48 60 15 72 34 6 37 5 59 -39 13
-25 29 -45 37 -45 10 0 7 12 -12 45 -29 53 -25 58 56 53 l54 -3 -1 -52 c-1
-40 1 -50 12 -46 9 3 14 22 14 54 0 47 1 49 29 49 16 0 36 -3 45 -6 14 -5 14
-9 0 -36 -9 -16 -13 -33 -9 -36 8 -8 44 38 45 55 0 9 13 11 48 6 78 -10 83
-15 75 -83 -8 -78 9 -78 25 -1 l12 59 67 -24 c37 -13 68 -26 70 -28 7 -6 -89
-86 -103 -86 -8 0 -14 -5 -14 -11 0 -18 43 1 93 43 44 36 50 39 75 29 15 -7
40 -23 56 -36 l29 -23 -48 -31 c-27 -17 -56 -31 -64 -31 -11 0 -12 -3 -4 -11
12 -12 63 10 100 44 21 19 24 19 48 3 14 -9 25 -20 25 -25 0 -12 -80 -49 -122
-56 -45 -7 -50 -25 -8 -25 38 0 98 24 128 52 l22 22 29 -35 29 -34 -26 -22
c-15 -11 -24 -24 -21 -27 3 -4 17 3 32 14 l25 20 25 -44 25 -45 -24 -16 c-14
-9 -22 -20 -18 -26 4 -7 12 -5 23 5 10 9 20 16 23 16 3 0 14 -21 24 -47 15
-38 19 -74 19 -168 0 -128 -13 -181 -64 -264 l-15 -23 -23 46 c-13 25 -28 46
-33 46 -17 0 -11 -20 21 -77 35 -62 42 -60 84 15 64 114 83 267 50 392 -45
171 -172 326 -347 423 -58 32 -176 73 -272 93 -100 22 -350 22 -438 1 -92 -23
-190 -72 -238 -121 l-40 -40 0 30 c0 38 -37 145 -62 175 l-20 24 5 -37z m129
-1027 c42 -47 118 -176 118 -200 0 -6 -13 -2 -29 10 -22 16 -38 20 -63 15 -34
-6 -62 4 -56 20 1 5 -19 12 -47 16 -107 16 -211 41 -232 54 -13 8 -32 32 -43
53 -24 47 -19 51 78 52 37 1 96 7 132 14 36 7 72 13 82 14 9 0 36 -21 60 -48z
m-550 22 c119 -7 126 -18 69 -102 -56 -82 -72 -93 -123 -89 -40 3 -43 1 -46
-25 -2 -19 -9 -27 -23 -27 -16 0 -19 7 -19 49 l0 49 68 25 c40 15 68 31 70 41
3 14 -1 14 -25 5 -34 -13 -157 -39 -184 -39 -17 0 -16 5 14 66 32 65 32 66 67
60 19 -4 79 -9 132 -13z m162 -65 c18 -26 20 -24 -27 -32 l-39 -7 18 30 c22
37 28 38 48 9z m314 -128 c27 0 1 -18 -35 -24 -95 -17 -115 -18 -126 -7 -8 8
-5 11 11 11 12 0 22 5 22 12 0 9 3 9 12 0 7 -7 23 -12 38 -11 14 0 19 3 11 6
-21 8 9 25 34 18 11 -2 26 -5 33 -5z m-505 -27 c11 -10 -13 -33 -34 -33 -18 0
-26 20 -12 33 8 9 38 9 46 0z m-283 -29 c0 -17 -36 -19 -46 -3 -8 14 14 29 33
22 7 -3 13 -11 13 -19z m77 10 c5 -15 -25 -26 -48 -19 -11 4 -19 13 -19 21 0
18 61 16 67 -2z m871 -4 c10 -17 8 -21 -16 -34 -40 -21 -182 -33 -182 -16 0 7
-8 19 -17 26 -27 19 -10 27 70 34 125 12 131 11 145 -10z m-268 -20 c-20 -13
-33 -13 -25 0 3 6 14 10 23 10 15 0 15 -2 2 -10z m-465 -44 c-28 -37 -64 -46
-181 -46 -71 0 -137 24 -132 50 3 15 67 22 276 28 l63 2 -26 -34z m500 24 c3
-6 -1 -13 -10 -16 -19 -8 -30 0 -20 15 8 14 22 14 30 1z m315 -49 l24 -19 -39
-8 -40 -9 44 -5 c56 -6 65 -27 17 -36 -47 -8 -56 -24 -15 -24 25 0 29 -3 20
-14 -6 -7 -32 -19 -57 -26 -36 -10 -50 -10 -72 0 l-27 13 33 9 c43 12 41 26
-4 24 -48 -1 -55 20 -9 28 46 9 46 27 0 19 -42 -7 -46 9 -13 44 28 30 101 32
138 4z m-1091 -35 c14 -17 -12 -30 -42 -20 -14 4 -18 2 -15 -7 3 -8 21 -15 41
-17 47 -4 47 -16 0 -29 l-38 -10 38 -2 c26 -1 37 -6 37 -16 0 -8 -8 -15 -17
-15 -10 -1 -29 -8 -43 -16 l-25 -15 33 4 c38 4 42 -5 7 -21 -45 -21 -99 -15
-128 13 -31 31 -36 51 -25 93 12 43 59 72 119 72 28 0 51 -6 58 -14z m549 -98
c23 -40 38 -76 36 -80 -18 -29 -98 23 -109 71 -6 30 9 81 24 81 5 0 27 -32 49
-72z m437 -68 c6 -9 -15 -50 -26 -50 -3 0 -4 14 -1 30 4 30 16 39 27 20z
m-113 -150 c61 -128 26 -341 -69 -419 -49 -41 -112 -56 -223 -55 -75 0 -105 5
-145 23 -131 58 -194 189 -178 370 8 94 12 98 57 52 38 -39 39 -40 23 -65 -26
-38 -20 -45 9 -11 17 21 22 23 15 8 -17 -34 -13 -38 14 -13 21 20 25 21 25 6
0 -10 5 -14 11 -10 7 4 62 8 123 9 67 1 122 7 139 15 25 12 30 11 54 -11 l27
-24 -17 27 c-10 17 -13 29 -7 33 6 4 8 10 5 15 -6 9 30 67 50 83 6 4 23 6 40
5 23 -2 34 -11 47 -38z m-776 -506 c18 -15 17 -15 -15 -10 -18 3 -40 6 -48 6
-8 0 -11 5 -8 10 9 15 49 12 71 -6z m1104 8 c0 -9 -67 -32 -91 -32 -9 1 -5 8
10 20 23 20 81 28 81 12z"/>
<path d="M2482 3220 c0 -14 2 -19 5 -12 2 6 2 18 0 25 -3 6 -5 1 -5 -13z"/>
<path d="M2121 3084 c0 -11 3 -14 6 -6 3 7 2 16 -1 19 -3 4 -6 -2 -5 -13z"/>
<path d="M1852 3070 c0 -14 2 -19 5 -12 2 6 2 18 0 25 -3 6 -5 1 -5 -13z"/>
<path d="M2016 3081 c-4 -7 -5 -15 -2 -18 9 -9 19 4 14 18 -4 11 -6 11 -12 0z"/>
<path d="M2265 3080 c-3 -5 -2 -10 4 -10 5 0 13 5 16 10 3 6 2 10 -4 10 -5 0
-13 -4 -16 -10z"/>
<path d="M2350 3080 c0 -5 7 -10 15 -10 8 0 15 5 15 10 0 6 -7 10 -15 10 -8 0
-15 -4 -15 -10z"/>
<path d="M3050 3046 c0 -2 7 -9 15 -16 9 -7 15 -8 15 -2 0 5 -7 12 -15 16 -8
3 -15 4 -15 2z"/>
<path d="M1867 3015 c-17 -16 -31 -57 -72 -208 -21 -75 -26 -109 -21 -147 4
-30 2 -58 -4 -70 -7 -14 -7 -20 0 -20 5 0 10 5 10 11 0 5 15 -1 33 -15 48 -37
54 -32 17 11 -32 36 -32 37 -28 127 5 107 29 171 84 222 19 19 32 34 28 34 -5
0 -23 -15 -42 -32 l-33 -33 7 30 c4 17 15 47 24 68 20 40 19 45 -3 22z"/>
<path d="M1955 3020 c4 -6 11 -8 16 -5 14 9 11 15 -7 15 -8 0 -12 -5 -9 -10z"/>
<path d="M2410 3026 c0 -2 7 -7 16 -10 8 -3 12 -2 9 4 -6 10 -25 14 -25 6z"/>
<path d="M3293 3003 c9 -2 23 -2 30 0 6 3 -1 5 -18 5 -16 0 -22 -2 -12 -5z"/>
<path d="M2724 2942 c11 -12 19 -13 27 -5 7 7 3 12 -16 15 -25 5 -25 4 -11
-10z"/>
<path d="M2358 2884 c-39 -21 -52 -75 -37 -161 17 -102 18 -103 97 -103 91 0
97 6 96 83 -1 76 -31 139 -83 174 -40 27 -38 27 -73 7z m81 -41 c38 -46 58
-98 35 -89 -9 3 -43 6 -76 6 l-61 0 5 45 c10 83 48 98 97 38z m-19 -128 c0 -8
-4 -15 -9 -15 -13 0 -22 16 -14 24 11 11 23 6 23 -9z"/>
<path d="M2367 2854 c-4 -4 -7 -14 -7 -23 1 -14 2 -14 14 2 7 9 17 17 21 17 4
0 14 -8 22 -17 13 -17 14 -17 11 2 -3 20 -46 33 -61 19z"/>
<path d="M1898 2880 c-27 -16 -58 -114 -58 -184 0 -70 0 -70 73 -81 41 -6 46
-5 58 16 7 15 13 65 13 127 1 91 -1 105 -18 118 -23 16 -44 17 -68 4z m50 -13
c6 -7 14 -37 18 -66 l7 -54 -33 6 c-18 4 -40 7 -50 7 -13 0 -16 6 -13 28 8 49
12 57 25 44 8 -8 15 -9 25 -1 21 18 15 31 -9 23 -20 -6 -21 -5 -9 10 16 19 25
20 39 3z m-28 -163 c0 -8 -4 -12 -10 -9 -5 3 -10 10 -10 16 0 5 5 9 10 9 6 0
10 -7 10 -16z"/>
<path d="M13555 2868 c-71 -13 -206 -82 -266 -136 -116 -104 -165 -298 -123
-485 28 -122 57 -162 169 -234 59 -37 240 -101 391 -138 182 -43 230 -69 265
-138 17 -33 20 -53 17 -102 -9 -104 -65 -182 -163 -227 -65 -29 -194 -31 -274
-4 -97 33 -171 127 -201 254 -16 70 -30 76 -154 69 -143 -8 -140 -6 -132 -86
11 -106 45 -216 87 -281 46 -72 121 -129 259 -199 87 -44 113 -52 193 -62 96
-11 89 -12 297 36 78 18 164 72 241 152 75 78 100 121 129 224 24 89 25 154 4
257 -20 98 -25 107 -107 191 -77 80 -138 113 -287 155 -288 81 -391 121 -454
176 -72 64 -68 136 13 237 60 73 96 87 213 80 141 -9 231 -64 289 -179 16 -32
40 -63 52 -69 14 -6 60 -7 127 -2 l105 8 0 61 c0 51 -7 74 -42 145 -87 176
-214 267 -410 295 -110 15 -165 16 -238 2z m283 -117 c114 -30 188 -90 241
-196 34 -67 38 -93 16 -101 -23 -9 -38 9 -59 65 -25 70 -112 150 -186 173 -94
28 -171 40 -221 34 -68 -9 -152 -40 -202 -75 -106 -73 -152 -277 -91 -406 34
-73 153 -132 383 -192 206 -53 297 -94 375 -167 76 -72 90 -107 90 -236 0 -80
-2 -91 -42 -175 -49 -102 -72 -130 -155 -187 -79 -54 -116 -68 -206 -78 -89
-10 -267 17 -338 51 -48 23 -144 122 -172 177 -32 63 -56 151 -45 162 19 19
44 -1 55 -43 13 -48 52 -128 82 -169 50 -68 161 -112 309 -124 123 -10 202 7
270 58 114 85 145 130 177 255 26 102 26 111 -3 176 -58 131 -162 194 -419
251 -84 19 -149 42 -231 81 -129 62 -162 93 -196 182 -18 48 -21 72 -17 141 4
70 11 96 41 157 58 117 126 164 301 209 37 9 169 -3 243 -23z"/>
<path d="M3390 2854 c0 -8 5 -12 10 -9 6 4 8 11 5 16 -9 14 -15 11 -15 -7z"/>
<path d="M4962 2853 c-20 -18 -96 -255 -161 -504 -17 -63 -44 -153 -60 -200
-16 -46 -59 -192 -96 -324 -37 -132 -80 -283 -96 -335 -38 -122 -81 -352 -69
-364 12 -12 98 -24 177 -25 56 -1 64 2 79 23 8 14 22 64 31 113 8 48 18 92 22
96 9 9 255 22 390 19 114 -1 134 -14 152 -101 16 -77 38 -130 60 -141 23 -13
190 -13 223 0 35 13 34 43 -5 150 -73 203 -166 517 -190 640 -6 36 -22 85 -34
110 -29 60 -101 288 -169 540 -78 288 -75 279 -97 301 -26 26 -127 27 -157 2z
m177 -468 c46 -143 107 -332 136 -420 65 -194 102 -317 125 -410 10 -38 34
-124 54 -189 20 -66 34 -126 31 -134 -3 -7 -15 -12 -27 -10 -20 3 -27 18 -53
105 -16 57 -35 108 -42 114 -17 16 -209 21 -447 12 l-199 -8 -23 -80 c-12 -44
-27 -99 -34 -122 -12 -46 -17 -50 -43 -30 -15 11 -11 31 42 232 61 233 118
441 183 670 22 77 53 187 69 245 15 58 39 140 53 183 14 43 26 84 26 92 0 7 7
21 16 30 16 15 18 15 34 -2 9 -10 54 -135 99 -278z"/>
<path d="M4967 2363 c-31 -98 -68 -218 -81 -268 -14 -49 -38 -139 -55 -200
-29 -107 -55 -208 -84 -330 l-14 -60 310 -3 c171 -1 311 -1 313 1 8 8 -31 153
-86 318 -34 101 -90 279 -126 394 -76 245 -104 325 -114 325 -3 0 -32 -80 -63
-177z m133 -368 c24 -82 57 -202 75 -265 27 -94 31 -116 19 -123 -7 -4 -75 -6
-151 -5 l-138 3 -3 33 c-2 18 6 60 17 92 12 33 21 69 21 79 0 29 65 280 84
326 22 51 23 49 76 -140z"/>
<path d="M9902 2859 c-46 -4 -125 -22 -177 -39 -122 -41 -327 -162 -403 -239
-66 -66 -153 -188 -187 -263 -36 -80 -75 -224 -82 -303 -13 -165 70 -445 173
-581 55 -72 189 -192 264 -236 38 -22 93 -43 139 -54 42 -9 98 -23 124 -30 33
-10 103 -15 220 -16 143 -1 188 3 266 20 108 25 258 91 316 138 22 19 65 53
95 77 94 74 198 282 229 461 6 33 11 109 11 169 0 94 -5 128 -35 239 -44 161
-67 208 -164 327 -109 133 -132 152 -251 209 -251 119 -346 140 -538 121z
m310 -158 c181 -61 294 -141 400 -284 118 -159 160 -295 155 -502 -2 -80 -9
-116 -31 -180 -53 -150 -86 -205 -171 -290 -95 -95 -172 -139 -325 -185 -214
-63 -349 -63 -538 -1 -144 47 -199 79 -290 165 -114 109 -162 191 -197 332
-26 107 -26 116 -17 245 12 159 40 245 112 354 85 126 249 265 376 318 54 23
165 48 264 61 74 9 176 -4 262 -33z"/>
<path d="M9823 2660 c-114 -30 -207 -73 -288 -135 -76 -59 -174 -172 -218
-254 -34 -63 -64 -180 -72 -287 -7 -80 -4 -101 24 -207 39 -151 66 -200 166
-299 92 -92 145 -121 300 -169 100 -31 121 -34 230 -33 99 0 138 5 220 27 295
81 445 222 510 478 25 101 26 112 16 225 -10 126 -28 185 -93 303 -39 70 -129
182 -177 220 -43 34 -127 77 -234 120 -73 29 -87 31 -195 30 -79 0 -140 -7
-189 -19z m319 -101 c88 -29 176 -76 217 -115 20 -18 48 -43 62 -54 32 -24
124 -204 143 -281 8 -30 17 -94 21 -142 6 -76 4 -97 -15 -158 -13 -39 -34 -87
-47 -106 -13 -20 -31 -53 -40 -74 -16 -41 -109 -134 -153 -152 -14 -6 -39 -22
-56 -34 -50 -37 -184 -67 -274 -60 -88 7 -321 51 -351 68 -43 22 -140 101
-163 132 -31 41 -90 158 -110 220 -18 54 -21 186 -6 268 5 30 29 92 52 139 78
155 256 303 438 363 8 3 61 6 118 6 79 1 117 -4 164 -20z"/>
<path d="M12422 2862 c-48 -8 -53 -32 -58 -304 -3 -139 -1 -399 5 -577 5 -179
6 -331 2 -339 -10 -17 -231 262 -315 396 -72 115 -268 402 -330 481 -28 37
-82 116 -120 176 -99 157 -83 145 -196 145 -139 0 -131 17 -130 -281 0 -134 5
-342 11 -464 5 -121 7 -330 3 -465 -7 -270 1 -490 20 -515 9 -13 34 -18 97
-22 103 -7 154 10 165 53 4 15 5 245 1 511 -3 284 -2 483 4 483 5 0 44 -50 86
-112 43 -61 105 -148 139 -192 33 -45 99 -137 148 -206 143 -205 243 -343 276
-380 17 -19 45 -54 61 -78 40 -57 73 -70 210 -78 135 -8 141 -5 159 79 17 84
19 1659 2 1680 -10 12 -34 15 -115 14 -56 0 -112 -2 -125 -5z m133 -627 c0
-466 -9 -894 -21 -992 -6 -46 -29 -68 -59 -57 -9 4 -44 48 -77 98 -67 99 -374
522 -451 620 -26 34 -70 95 -98 136 -28 41 -59 84 -69 95 -10 11 -62 90 -115
175 -132 212 -197 298 -205 274 -3 -11 -3 -156 0 -324 3 -168 3 -471 0 -675
-5 -362 -5 -370 -25 -370 -19 0 -20 7 -22 210 -1 116 -7 445 -13 733 -12 563
-12 556 38 550 28 -3 103 -93 150 -178 15 -26 45 -74 66 -107 179 -268 271
-402 325 -473 28 -36 139 -186 248 -335 109 -148 211 -285 229 -304 l31 -34 8
409 c4 225 7 549 5 721 -1 172 1 317 5 323 4 6 17 10 28 8 l22 -3 0 -500z"/>
<path d="M6570 2845 c-281 -64 -414 -148 -588 -372 -46 -59 -107 -185 -134
-278 -20 -70 -23 -101 -22 -250 0 -157 2 -176 27 -247 55 -160 95 -226 192
-323 177 -177 364 -252 687 -276 146 -10 236 3 325 48 88 44 93 51 93 149 0
99 -17 150 -53 159 -15 4 -69 -8 -143 -32 -114 -36 -125 -38 -254 -38 -134 0
-135 0 -210 36 -129 62 -214 148 -280 284 -22 44 -46 109 -54 145 -46 193 14
420 145 551 175 175 511 211 731 78 108 -65 123 -48 112 129 -8 123 -12 130
-94 172 -139 70 -338 97 -480 65z m335 -139 c82 -28 155 -69 155 -86 0 -25
-35 -19 -127 22 l-98 43 -130 -1 c-111 -1 -143 -5 -220 -28 -123 -37 -165 -64
-276 -175 -84 -84 -101 -108 -143 -196 -33 -68 -51 -121 -57 -165 -36 -274 46
-526 216 -663 140 -112 270 -163 455 -179 126 -10 174 -5 338 38 17 5 22 2 22
-13 0 -53 -94 -77 -295 -77 -207 -1 -326 36 -500 154 -89 61 -132 106 -189
199 -53 86 -68 128 -96 268 -29 146 -18 260 40 411 49 126 94 193 201 290 107
98 188 139 323 168 149 32 268 29 381 -10z"/>
<path d="M7542 2849 c-23 -3 -47 -10 -53 -16 -9 -9 -14 -536 -5 -552 2 -3 7
-242 10 -531 4 -289 9 -544 13 -568 9 -68 26 -81 114 -88 91 -8 143 0 170 27
18 18 19 34 19 243 0 150 4 227 11 232 6 3 66 9 135 12 117 5 125 4 158 -18
20 -15 90 -106 177 -233 79 -115 156 -220 172 -233 25 -21 39 -24 110 -24 93
0 196 15 211 30 13 13 -8 49 -104 175 -133 174 -260 366 -260 392 0 4 21 21
48 38 92 58 142 114 188 210 53 114 64 154 73 277 12 148 -5 243 -60 338 -64
111 -84 135 -156 180 -163 103 -221 114 -613 115 -173 0 -334 -2 -358 -6z
m674 -98 c159 -33 216 -66 304 -177 104 -130 133 -278 91 -455 -34 -142 -161
-297 -306 -371 -22 -11 -41 -22 -43 -23 -3 -3 43 -67 291 -412 43 -60 61 -113
38 -113 -27 0 -48 21 -103 104 -34 50 -113 158 -176 240 l-116 149 -95 -7
c-53 -3 -173 -6 -268 -6 l-171 0 4 -227 c4 -236 -1 -267 -33 -247 -17 10 -19
43 -25 395 -4 211 -7 560 -5 774 l2 390 140 6 c201 9 366 2 471 -20z"/>
<path d="M7673 2714 c-10 -4 -13 -110 -13 -477 0 -260 4 -478 9 -485 6 -11 58
-13 257 -10 243 3 250 4 304 29 70 33 167 106 222 168 163 182 161 470 -5 635
-66 66 -95 81 -216 113 -86 22 -120 25 -321 29 -124 2 -231 1 -237 -2z m461
-95 c104 -19 148 -39 201 -93 54 -54 101 -150 111 -229 8 -57 -19 -179 -56
-254 -34 -70 -111 -145 -177 -175 -83 -37 -401 -66 -418 -38 -9 14 -19 764
-12 785 5 12 29 15 149 15 78 0 169 -5 202 -11z"/>
<path d="M2556 2815 c4 -11 9 -50 12 -86 4 -65 -5 -99 -48 -165 -8 -13 -10
-29 -5 -40 6 -16 11 -11 27 29 18 41 26 49 67 62 l46 15 -42 -4 c-42 -4 -43
-4 -35 22 11 43 6 114 -12 152 -9 19 -13 26 -10 15z"/>
<path d="M3525 2820 c-3 -5 -2 -10 4 -10 5 0 13 5 16 10 3 6 2 10 -4 10 -5 0
-13 -4 -16 -10z"/>
<path d="M2246 2751 c-4 -5 3 -7 14 -4 23 6 26 13 6 13 -8 0 -17 -4 -20 -9z"/>
<path d="M3600 2676 c0 -2 11 -6 25 -8 13 -3 22 -1 19 3 -5 9 -44 13 -44 5z"/>
<path d="M2705 2630 c3 -5 10 -10 16 -10 5 0 9 5 9 10 0 6 -7 10 -16 10 -8 0
-12 -4 -9 -10z"/>
<path d="M3770 2620 c0 -5 5 -10 10 -10 6 0 10 5 10 10 0 6 -4 10 -10 10 -5 0
-10 -4 -10 -10z"/>
<path d="M1705 2580 c-3 -5 1 -10 9 -10 9 0 16 5 16 10 0 6 -4 10 -9 10 -6 0
-13 -4 -16 -10z"/>
<path d="M2055 2568 c-14 -11 -25 -23 -25 -28 0 -20 53 -70 75 -70 20 0 25 -7
31 -36 10 -55 -31 -68 -78 -26 -29 24 -23 -6 10 -59 55 -87 119 -120 155 -81
25 27 57 104 57 136 l0 29 -23 -21 c-15 -14 -36 -22 -59 -22 -33 0 -36 3 -42
35 -6 31 -3 40 23 64 56 52 35 92 -49 96 -38 2 -57 -3 -75 -17z m132 -14 c14
-37 -40 -73 -90 -60 -27 6 -45 44 -32 65 3 6 31 11 61 11 41 0 56 -4 61 -16z
m28 -194 c-28 -12 -95 -12 -95 0 0 6 25 10 58 9 41 0 51 -3 37 -9z"/>
<path d="M2597 2583 c-4 -3 -7 -11 -7 -17 0 -6 5 -5 12 2 6 6 9 14 7 17 -3 3
-9 2 -12 -2z"/>
<path d="M1996 2564 c-23 -23 -20 -30 4 -9 11 10 20 20 20 22 0 7 -9 2 -24
-13z"/>
<path d="M2685 2570 c-3 -5 -1 -10 4 -10 6 0 11 5 11 10 0 6 -2 10 -4 10 -3 0
-8 -4 -11 -10z"/>
<path d="M1730 2555 c-7 -9 -11 -18 -8 -20 3 -3 11 1 18 10 7 9 11 18 8 20 -3
3 -11 -1 -18 -10z"/>
<path d="M1916 2554 c-5 -14 -4 -15 9 -4 17 14 19 20 6 20 -5 0 -12 -7 -15
-16z"/>
<path d="M2285 2558 c11 -6 34 -22 50 -37 26 -22 25 -21 -4 12 -19 20 -42 37
-50 37 -12 -1 -11 -3 4 -12z"/>
<path d="M1772 2548 c-7 -7 -12 -21 -12 -32 0 -17 3 -16 15 8 17 32 15 42 -3
24z"/>
<path d="M1805 1440 c-3 -5 -1 -10 4 -10 6 0 11 5 11 10 0 6 -2 10 -4 10 -3 0
-8 -4 -11 -10z"/>
</g>
</svg>
