<svg width="50" height="50" viewBox="0 0 50 50" fill="none" xmlns="http://www.w3.org/2000/svg">
<g clip-path="url(#clip0_1506_9470)">
<path d="M26.0415 31.9795C29.3207 31.9795 31.979 29.3212 31.979 26.042C31.979 22.7628 29.3207 20.1045 26.0415 20.1045C22.7623 20.1045 20.104 22.7628 20.104 26.042C20.104 29.3212 22.7623 31.9795 26.0415 31.9795Z" fill="#BFBFBF"/>
<path d="M41.875 10.2083H35.601L33.1469 7.53646C32.4146 6.725 31.3458 6.25 30.2375 6.25H21.8458C20.7375 6.25 19.6687 6.725 18.9167 7.53646L16.4823 10.2083H10.2083C8.03125 10.2083 6.25 11.9896 6.25 14.1667V37.9167C6.25 40.0937 8.03125 41.875 10.2083 41.875H41.875C44.0521 41.875 45.8333 40.0937 45.8333 37.9167V14.1667C45.8333 11.9896 44.0521 10.2083 41.875 10.2083ZM26.0417 35.9375C20.5792 35.9375 16.1458 31.5042 16.1458 26.0417C16.1458 20.5792 20.5792 16.1458 26.0417 16.1458C31.5042 16.1458 35.9375 20.5792 35.9375 26.0417C35.9375 31.5042 31.5042 35.9375 26.0417 35.9375Z" fill="#BFBFBF"/>
</g>
<defs>
<clipPath id="clip0_1506_9470">
<rect width="50" height="50" fill="white"/>
</clipPath>
</defs>
</svg>
