<svg width="18" height="19" viewBox="0 0 18 19" fill="none" xmlns="http://www.w3.org/2000/svg">
<g id="icon/search">
<path id="Vector" d="M15.7499 16.2502L12.4927 12.9929M12.4927 12.9929C13.0498 12.4357 13.4918 11.7743 13.7933 11.0463C14.0949 10.3183 14.2501 9.53811 14.2501 8.75015C14.2501 7.9622 14.0949 7.18197 13.7933 6.45399C13.4918 5.72602 13.0498 5.06457 12.4927 4.5074C11.9355 3.95024 11.274 3.50827 10.5461 3.20673C9.8181 2.9052 9.03786 2.75 8.24991 2.75C7.46196 2.75 6.68172 2.9052 5.95375 3.20673C5.22578 3.50827 4.56433 3.95024 4.00716 4.5074C2.88191 5.63265 2.24976 7.15881 2.24976 8.75015C2.24976 10.3415 2.88191 11.8677 4.00716 12.9929C5.13241 14.1182 6.65857 14.7503 8.24991 14.7503C9.84125 14.7503 11.3674 14.1182 12.4927 12.9929Z" stroke="#0A0A0A" stroke-opacity="0.45" stroke-width="1.125" stroke-linecap="round" stroke-linejoin="round"/>
</g>
</svg>
